# xmcd
#
# Track frame offsets: 
#        150
#        16801
#        31583
#        48102
#        66192
#        84865
#        100814
#        111705
#        132756
#        147191
#        158153
#        178221
#        201653
#        220684
#        241039
#
# Disc length: 3361 seconds
#
# Revision: 0
# Processed by: cddbd v1.5.2PL0 Copyright (c) Steve Scherf et al.
# Submitted via: ExactAudioCopy v0.99pb5
#
DISCID=c60d1f0f
DTITLE=Kaija Koo - 30 suosikkia CD2
DYEAR=2010
DGENRE=Pop
TTITLE0=Unihiekkamyrsky
TTITLE1=Viisi vuodenaikaa
TTITLE2=Vedet virtailee
TTITLE3=Tämä yö
TTITLE4=Menneen talven lumet
TTITLE5=Kultainen ranta
TTITLE6=Mitä siitä
TTITLE7=Operaatio jalokivimeri
TTITLE8=Tulisit edes käymään
TTITLE9=Minä muistan sinut
TTITLE10=Matkalla kotiin
TTITLE11=Ei yksi pääsky kesää tee
TTITLE12=Taivas sisälläni
TTITLE13=Sinua päin
TTITLE14=Hyviä öitä
EXTD=
EXTT0=
EXTT1=
EXTT2=
EXTT3=
EXTT4=
EXTT5=
EXTT6=
EXTT7=
EXTT8=
EXTT9=
EXTT10=
EXTT11=
EXTT12=
EXTT13=
EXTT14=
PLAYORDER=
